<svg width="26" height="29" viewBox="0 0 26 29" fill="none" xmlns="http://www.w3.org/2000/svg">
<path d="M23.4848 9.39429L10.3078 9.34814C11.3422 8.35347 12.9521 6.56613 13.9244 5.45251C14.9779 4.24659 15.1146 2.19777 14.2834 0.974422C13.4515 -0.252001 12.0611 -0.312502 11.1279 0.752927C9.59339 2.51155 7.3614 4.81263 5.57788 6.0247C4.10762 7.0245 2.89668 7.36597 1.37397 9.38301C1.15454 9.74294 0.944711 10.0711 0.757049 10.3849L0.757049 26.5006C0.985345 26.6319 1.21512 26.8442 1.47223 27.0841C2.19554 27.7578 3.09469 28.5977 4.8058 28.6038L13.6791 28.6356C14.7755 28.6397 15.6695 27.3989 15.6724 25.871C15.6732 25.2004 15.5025 24.5605 15.1885 24.0539C16.2073 23.9452 17.0223 22.7383 17.0245 21.2986C17.026 20.51 16.7881 19.7645 16.3691 19.2364C17.538 19.2405 18.0241 17.8131 18.0256 16.7251C18.0271 16.0504 17.8549 15.4146 17.549 14.9183L23.4944 14.9378C24.129 14.9399 24.6033 14.4487 24.6033 14.4487C25.1449 13.9308 25.4663 13.09 25.4678 12.1732C25.4707 10.6453 24.5812 9.39839 23.4848 9.39429Z" fill="#F2F2F2"/>
</svg>
