<svg width="14" height="13" viewBox="0 0 14 13" fill="none" xmlns="http://www.w3.org/2000/svg">
<path fill-rule="evenodd" clip-rule="evenodd" d="M12.9337 8.00082C13.3707 8.00082 13.5968 7.47907 13.2979 7.16026L7.79916 1.2946C7.40408 0.873156 6.73512 0.873155 6.34004 1.2946L0.806787 7.19708C0.521017 7.50192 0.737164 8.00082 1.15501 8.00082V8.00082C1.41861 8.00082 1.63231 8.21451 1.63231 8.47812V11.2006C1.63231 11.7529 2.08002 12.2006 2.63231 12.2006H4.44998C5.00226 12.2006 5.44998 11.7529 5.44998 11.2006V10.3885C5.44998 9.83617 5.89769 9.38846 6.44998 9.38846H7.69065C8.24293 9.38846 8.69065 9.83617 8.69065 10.3885V11.2006C8.69065 11.7529 9.13836 12.2006 9.69065 12.2006H11.4346C11.9868 12.2006 12.4346 11.7529 12.4346 11.2006V8.49999C12.4346 8.2243 12.658 8.00082 12.9337 8.00082V8.00082Z" fill="white"/>
</svg>
